<svg t="1714318883941" class="icon" viewBox="0 0 1024 1024" version="1.1" xmlns="http://www.w3.org/2000/svg" p-id="1471"
     width="200" height="200">
  <path
    d="M978.07309 510.299003c-6.803987-3.401993-13.607973 0-17.009967 3.401994-102.059801 102.059801-231.335548 166.697674-234.737542 166.697674l-10.20598 10.20598c0 3.401993 0 10.20598 3.401994 13.607974l20.41196 30.61794c-68.039867 64.637874-142.883721 85.049834-153.089701 74.843854-3.401993-3.401993-6.803987-20.41196-6.803987-27.215947V374.219269h95.255814c20.41196 20.41196 47.627907 34.019934 74.843854 34.019934 57.833887 0 102.059801-44.225914 102.059801-102.059801s-44.225914-102.059801-102.059801-102.059801c-30.61794 0-57.833887 13.607973-74.843854 34.019934H580.039867c0-6.803987 0-20.41196-3.401993-30.61794 23.813953-23.813953 37.421927-54.431894 37.421927-88.451828C614.059801 54.431894 559.627907 0 494.990033 0S375.920266 54.431894 375.920266 119.069767c0 34.019934 13.607973 64.637874 37.421927 88.451828 0 13.607973-3.401993 23.813953-3.401994 30.61794h-61.23588c-6.803987-6.803987-13.607973-13.607973-20.41196-17.009967-13.607973-10.20598-34.019934-17.009967-54.431894-17.009967-57.833887 0-102.059801 44.225914-102.059801 102.059801s44.225914 102.059801 102.059801 102.059801c30.61794 0 57.833887-13.607973 74.843854-34.019934H409.940199v408.239203c0 6.803987-3.401993 23.813953-10.20598 30.61794 0 0-3.401993 3.401993-6.803986 3.401993-27.215947 0-64.637874-37.421927-115.667775-88.451827l10.205981-23.813953c3.401993-6.803987 0-17.009967-6.803987-23.813954 0 0-112.265781-64.637874-217.727575-166.697674-3.401993-3.401993-10.20598-6.803987-17.009967-3.401994s-10.20598 10.20598-10.20598 17.009967c0 224.531561 98.657807 285.767442 102.059801 285.767442 3.401993 3.401993 6.803987 3.401993 6.803987 3.401993h30.61794c47.627907 108.863787 163.295681 142.883721 241.541528 166.697675 23.813953 6.803987 54.431894 17.009967 61.23588 23.813953 0 10.20598 6.803987 17.009967 17.009967 17.009967 6.803987 0 13.607973-3.401993 17.009967-13.607973v-3.401994c6.803987-6.803987 40.82392-17.009967 68.039867-23.813953 85.049834-23.813953 210.923588-57.833887 258.551495-166.697675h30.61794c3.401993 0 6.803987 0 6.803987-3.401993 3.401993-3.401993 112.265781-64.637874 112.265781-285.767442 0-6.803987-3.401993-13.607973-10.20598-17.009967zM494.990033 170.099668c-27.215947 0-51.0299-23.813953-51.0299-51.029901S467.774086 68.039867 494.990033 68.039867s51.0299 23.813953 51.029901 51.0299S522.20598 170.099668 494.990033 170.099668z"
    fill="#51a6fd" p-id="1472"></path>
</svg>
